# xmcd
#
# Track frame offsets: 
#        150
#        13401
#        29657
#        44028
#        62417
#        81934
#        95276
#        109633
#        126801
#        142583
#        156035
#        174441
#        195926
#        214054
#        234028
#        254690
#        271076
#        290593
#        307160
#        327022
#
# Disc length: 4661 seconds
#
# Revision: 0
# Processed by: cddbd v1.5.2PL0 Copyright (c) Steve Scherf et al.
# Submitted via: ExactAudioCopyFreeDBPlugin 1.0
#
DISCID=13123314
DTITLE=Reverend Gary Davis - Hesitation Blues CD2 (Compilation Blues C
DTITLE=haracters)
DYEAR=1900
DGENRE=Blues
TTITLE0=I belong to the band
TTITLE1=I am the light of this world
TTITLE2=Let us get together
TTITLE3=Samson and Delilah
TTITLE4=Lo, I be with you always
TTITLE5=Goin' to sit down on the banks of the river
TTITLE6=Twelve gates to the city
TTITLE7=Tryin' to get home
TTITLE8=Lord, I feel just like goin' on
TTITLE9=Pure religion
TTITLE10=Great change since I been born
TTITLE11=Death don't have no mercy
TTITLE12=Say no to the devil
TTITLE13=Time is drawing near
TTITLE14=Hold to god's unchanging hand
TTITLE15=Bad company
TTITLE16=Lord I looked down the road
TTITLE17=No one can do me like Jesus
TTITLE18=Trying to get to heaven in due time
TTITLE19=Crucifixion
EXTD=
EXTT0=
EXTT1=
EXTT2=
EXTT3=
EXTT4=
EXTT5=
EXTT6=
EXTT7=
EXTT8=
EXTT9=
EXTT10=
EXTT11=
EXTT12=
EXTT13=
EXTT14=
EXTT15=
EXTT16=
EXTT17=
EXTT18=
EXTT19=
PLAYORDER=
